<svg xmlns="http://www.w3.org/2000/svg" width="112" height="112" class="lds-flat-gear" preserveAspectRatio="xMidYMid" style="background:0 0" viewBox="0 0 100 100"><defs><mask id="a"><circle cx="50" cy="50" r="45" fill="#fff"/></mask></defs><circle cx="50" cy="50" r="45" fill="#ffbc00"/><path fill="#CE9800" d="m28.787 71.213 10.606-10.606a15 15 0 0 1 21.214-21.214l10.606-10.606 100 100-42.426 42.426Z" mask="url(#a)"/><g transform="rotate(87.602 -1.069 51.069)"><animateTransform attributeName="transform" dur="2.6s" keyTimes="0;1" repeatCount="indefinite" type="rotate" values="0;360"/><path fill="#f5f5f5" d="M24.214-4.875h6.5v9.75h-6.5a24.7 24.7 0 0 1-1.759 5.414l5.259 3.82-5.731 7.888-5.259-3.82a24.7 24.7 0 0 1-4.605 3.346l2.009 6.181-9.273 3.013-2.009-6.182a24.7 24.7 0 0 1-5.692 0l-2.009 6.182-9.273-3.013 2.009-6.181a24.7 24.7 0 0 1-4.605-3.346l-5.259 3.82-5.73-7.888 5.258-3.82a24.7 24.7 0 0 1-1.76-5.414h-6.5v-9.75h6.5a24.7 24.7 0 0 1 1.76-5.414l-5.259-3.82 5.731-7.888 5.259 3.82a24.7 24.7 0 0 1 4.605-3.346l-2.009-6.181 9.273-3.013 2.009 6.182a24.7 24.7 0 0 1 5.692 0l2.009-6.182 9.273 3.013-2.009 6.181a24.7 24.7 0 0 1 4.605 3.346l5.259-3.82 5.73 7.888-5.258 3.82a24.7 24.7 0 0 1 1.76 5.414M0-13a13 13 0 1 0 0 26 13 13 0 1 0 0-26"/></g></svg>