<svg xmlns="http://www.w3.org/2000/svg" xmlns:xlink="http://www.w3.org/1999/xlink" width="1024" zoomAndPan="magnify" viewBox="0 0 768 576" height="768" preserveAspectRatio="xMidYMid meet" version="1.0"><defs><g/><clipPath id="4a7e3dd569"><path d="M 24.304688 25.644531 L 743.695312 25.644531 L 743.695312 127.046875 L 24.304688 127.046875 Z M 24.304688 25.644531 " clip-rule="nonzero"/></clipPath><clipPath id="8319bb752f"><path d="M 31.515625 217.050781 L 750.90625 217.050781 L 750.90625 318.449219 L 31.515625 318.449219 Z M 31.515625 217.050781 " clip-rule="nonzero"/></clipPath><clipPath id="3fd6d68d3d"><path d="M 31.515625 408.449219 L 750.90625 408.449219 L 750.90625 509.851562 L 31.515625 509.851562 Z M 31.515625 408.449219 " clip-rule="nonzero"/></clipPath></defs><g clip-path="url(#4a7e3dd569)"><path fill="#ffc729" d="M 24.304688 25.644531 L 743.609375 25.644531 L 743.609375 127.046875 L 24.304688 127.046875 Z M 24.304688 25.644531 " fill-opacity="1" fill-rule="nonzero"/></g><g clip-path="url(#8319bb752f)"><path fill="#38b6ff" d="M 31.515625 217.050781 L 750.820312 217.050781 L 750.820312 318.449219 L 31.515625 318.449219 Z M 31.515625 217.050781 " fill-opacity="1" fill-rule="nonzero"/></g><g clip-path="url(#3fd6d68d3d)"><path fill="#ff9933" d="M 31.515625 408.449219 L 750.820312 408.449219 L 750.820312 509.851562 L 31.515625 509.851562 Z M 31.515625 408.449219 " fill-opacity="1" fill-rule="nonzero"/></g><g fill="#ffffff" fill-opacity="1"><g transform="translate(98.469577, 96.220698)"><g><path d="M 34.171875 0 L 32.078125 0 L 24.078125 -28.09375 C 23.410156 -30.394531 22.914062 -32.285156 22.59375 -33.765625 C 22.320312 -32.316406 21.941406 -30.65625 21.453125 -28.78125 C 20.960938 -26.90625 18.285156 -17.3125 13.421875 0 L 11.28125 0 L 1.265625 -36.40625 L 3.9375 -36.40625 L 10.3125 -12.953125 C 10.5625 -12.003906 10.789062 -11.125 11 -10.3125 C 11.21875 -9.507812 11.414062 -8.753906 11.59375 -8.046875 C 11.769531 -7.347656 11.925781 -6.671875 12.0625 -6.015625 C 12.207031 -5.359375 12.335938 -4.695312 12.453125 -4.03125 C 12.847656 -6.289062 13.691406 -9.71875 14.984375 -14.3125 L 21.21875 -36.40625 L 24.03125 -36.40625 L 31.328125 -11.0625 C 32.171875 -8.132812 32.773438 -5.773438 33.140625 -3.984375 C 33.359375 -5.179688 33.632812 -6.453125 33.96875 -7.796875 C 34.3125 -9.140625 36.875 -18.675781 41.65625 -36.40625 L 44.234375 -36.40625 Z M 34.171875 0 "/></g></g></g><g fill="#ffffff" fill-opacity="1"><g transform="translate(143.955708, 96.220698)"><g><path d="M 15.46875 0.5 C 11.53125 0.5 8.460938 -0.710938 6.265625 -3.140625 C 4.066406 -5.566406 2.96875 -8.960938 2.96875 -13.328125 C 2.96875 -17.640625 4.03125 -21.09375 6.15625 -23.6875 C 8.28125 -26.289062 11.144531 -27.59375 14.75 -27.59375 C 17.9375 -27.59375 20.445312 -26.476562 22.28125 -24.25 C 24.125 -22.03125 25.046875 -19.007812 25.046875 -15.1875 L 25.046875 -13.203125 L 5.546875 -13.203125 C 5.585938 -9.484375 6.457031 -6.644531 8.15625 -4.6875 C 9.851562 -2.726562 12.289062 -1.75 15.46875 -1.75 C 17.007812 -1.75 18.363281 -1.851562 19.53125 -2.0625 C 20.707031 -2.28125 22.191406 -2.75 23.984375 -3.46875 L 23.984375 -1.21875 C 22.453125 -0.550781 21.039062 -0.0976562 19.75 0.140625 C 18.457031 0.378906 17.03125 0.5 15.46875 0.5 Z M 14.75 -25.40625 C 12.132812 -25.40625 10.035156 -24.546875 8.453125 -22.828125 C 6.878906 -21.109375 5.960938 -18.628906 5.703125 -15.390625 L 22.4375 -15.390625 C 22.4375 -18.523438 21.753906 -20.976562 20.390625 -22.75 C 19.035156 -24.519531 17.15625 -25.40625 14.75 -25.40625 Z M 14.75 -25.40625 "/></g></g></g><g fill="#ffffff" fill-opacity="1"><g transform="translate(171.93951, 96.220698)"><g/></g></g><g fill="#ffffff" fill-opacity="1"><g transform="translate(185.184512, 96.220698)"><g><path d="M 5.15625 0 L 5.15625 -36.40625 L 7.6875 -36.40625 L 7.6875 0 Z M 5.15625 0 "/></g></g></g><g fill="#ffffff" fill-opacity="1"><g transform="translate(198.031169, 96.220698)"><g><path d="M 14.4375 -27.59375 C 16.394531 -27.59375 18.085938 -27.234375 19.515625 -26.515625 C 20.953125 -25.804688 22.234375 -24.585938 23.359375 -22.859375 L 23.515625 -22.859375 C 23.410156 -24.953125 23.359375 -27.003906 23.359375 -29.015625 L 23.359375 -38.75 L 25.796875 -38.75 L 25.796875 0 L 24.1875 0 L 23.5625 -4.140625 L 23.359375 -4.140625 C 21.296875 -1.046875 18.34375 0.5 14.5 0.5 C 10.757812 0.5 7.898438 -0.660156 5.921875 -2.984375 C 3.953125 -5.304688 2.96875 -8.695312 2.96875 -13.15625 C 2.96875 -17.832031 3.945312 -21.40625 5.90625 -23.875 C 7.863281 -26.351562 10.707031 -27.59375 14.4375 -27.59375 Z M 14.4375 -25.34375 C 11.488281 -25.34375 9.269531 -24.304688 7.78125 -22.234375 C 6.289062 -20.160156 5.546875 -17.148438 5.546875 -13.203125 C 5.546875 -5.523438 8.53125 -1.6875 14.5 -1.6875 C 17.550781 -1.6875 19.789062 -2.570312 21.21875 -4.34375 C 22.644531 -6.125 23.359375 -9.0625 23.359375 -13.15625 L 23.359375 -13.578125 C 23.359375 -17.753906 22.65625 -20.757812 21.25 -22.59375 C 19.851562 -24.425781 17.582031 -25.34375 14.4375 -25.34375 Z M 14.4375 -25.34375 "/></g></g></g><g fill="#ffffff" fill-opacity="1"><g transform="translate(228.380155, 96.220698)"><g><path d="M 15.46875 0.5 C 11.53125 0.5 8.460938 -0.710938 6.265625 -3.140625 C 4.066406 -5.566406 2.96875 -8.960938 2.96875 -13.328125 C 2.96875 -17.640625 4.03125 -21.09375 6.15625 -23.6875 C 8.28125 -26.289062 11.144531 -27.59375 14.75 -27.59375 C 17.9375 -27.59375 20.445312 -26.476562 22.28125 -24.25 C 24.125 -22.03125 25.046875 -19.007812 25.046875 -15.1875 L 25.046875 -13.203125 L 5.546875 -13.203125 C 5.585938 -9.484375 6.457031 -6.644531 8.15625 -4.6875 C 9.851562 -2.726562 12.289062 -1.75 15.46875 -1.75 C 17.007812 -1.75 18.363281 -1.851562 19.53125 -2.0625 C 20.707031 -2.28125 22.191406 -2.75 23.984375 -3.46875 L 23.984375 -1.21875 C 22.453125 -0.550781 21.039062 -0.0976562 19.75 0.140625 C 18.457031 0.378906 17.03125 0.5 15.46875 0.5 Z M 14.75 -25.40625 C 12.132812 -25.40625 10.035156 -24.546875 8.453125 -22.828125 C 6.878906 -21.109375 5.960938 -18.628906 5.703125 -15.390625 L 22.4375 -15.390625 C 22.4375 -18.523438 21.753906 -20.976562 20.390625 -22.75 C 19.035156 -24.519531 17.15625 -25.40625 14.75 -25.40625 Z M 14.75 -25.40625 "/></g></g></g><g fill="#ffffff" fill-opacity="1"><g transform="translate(256.363957, 96.220698)"><g><path d="M 23.40625 0 L 23.40625 -17.5625 C 23.40625 -20.28125 22.832031 -22.253906 21.6875 -23.484375 C 20.539062 -24.722656 18.765625 -25.34375 16.359375 -25.34375 C 13.117188 -25.34375 10.75 -24.523438 9.25 -22.890625 C 7.75 -21.253906 7 -18.601562 7 -14.9375 L 7 0 L 4.53125 0 L 4.53125 -27.0625 L 6.625 -27.0625 L 7.09375 -23.359375 L 7.25 -23.359375 C 9.007812 -26.179688 12.140625 -27.59375 16.640625 -27.59375 C 22.773438 -27.59375 25.84375 -24.296875 25.84375 -17.703125 L 25.84375 0 Z M 23.40625 0 "/></g></g></g><g fill="#ffffff" fill-opacity="1"><g transform="translate(286.439075, 96.220698)"><g><path d="M 11.671875 -1.6875 C 13.234375 -1.6875 14.597656 -1.820312 15.765625 -2.09375 L 15.765625 -0.09375 C 14.566406 0.300781 13.1875 0.5 11.625 0.5 C 9.238281 0.5 7.472656 -0.140625 6.328125 -1.421875 C 5.191406 -2.703125 4.625 -4.710938 4.625 -7.453125 L 4.625 -24.921875 L 0.625 -24.921875 L 0.625 -26.375 L 4.625 -27.5 L 5.875 -33.625 L 7.140625 -33.625 L 7.140625 -27.0625 L 15.09375 -27.0625 L 15.09375 -24.921875 L 7.140625 -24.921875 L 7.140625 -7.796875 C 7.140625 -5.722656 7.503906 -4.1875 8.234375 -3.1875 C 8.972656 -2.1875 10.117188 -1.6875 11.671875 -1.6875 Z M 11.671875 -1.6875 "/></g></g></g><g fill="#ffffff" fill-opacity="1"><g transform="translate(303.518168, 96.220698)"><g><path d="M 7 0 L 4.53125 0 L 4.53125 -27.0625 L 7 -27.0625 Z M 4.1875 -34.59375 C 4.1875 -36.1875 4.707031 -36.984375 5.75 -36.984375 C 6.269531 -36.984375 6.671875 -36.773438 6.953125 -36.359375 C 7.242188 -35.941406 7.390625 -35.351562 7.390625 -34.59375 C 7.390625 -33.84375 7.242188 -33.25 6.953125 -32.8125 C 6.671875 -32.382812 6.269531 -32.171875 5.75 -32.171875 C 4.707031 -32.171875 4.1875 -32.976562 4.1875 -34.59375 Z M 4.1875 -34.59375 "/></g></g></g><g fill="#ffffff" fill-opacity="1"><g transform="translate(315.045298, 96.220698)"><g><path d="M 14.59375 -24.921875 L 8.21875 -24.921875 L 8.21875 0 L 5.75 0 L 5.75 -24.921875 L 0.71875 -24.921875 L 0.71875 -26.375 L 5.75 -27.296875 L 5.75 -29.390625 C 5.75 -32.703125 6.359375 -35.132812 7.578125 -36.6875 C 8.796875 -38.238281 10.796875 -39.015625 13.578125 -39.015625 C 15.066406 -39.015625 16.554688 -38.789062 18.046875 -38.34375 L 17.484375 -36.203125 C 16.148438 -36.617188 14.828125 -36.828125 13.515625 -36.828125 C 11.597656 -36.828125 10.234375 -36.257812 9.421875 -35.125 C 8.617188 -33.988281 8.21875 -32.140625 8.21875 -29.578125 L 8.21875 -27.0625 L 14.59375 -27.0625 Z M 14.59375 -24.921875 "/></g></g></g><g fill="#ffffff" fill-opacity="1"><g transform="translate(330.331811, 96.220698)"><g><path d="M 0 -27.0625 L 2.546875 -27.0625 L 8.265625 -11.875 C 10.003906 -7.207031 11.109375 -4.0625 11.578125 -2.4375 L 11.734375 -2.4375 C 12.429688 -4.582031 13.566406 -7.78125 15.140625 -12.03125 L 20.875 -27.0625 L 23.40625 -27.0625 L 11.28125 4.390625 C 10.300781 6.941406 9.476562 8.664062 8.8125 9.5625 C 8.144531 10.457031 7.367188 11.128906 6.484375 11.578125 C 5.597656 12.023438 4.523438 12.25 3.265625 12.25 C 2.316406 12.25 1.257812 12.078125 0.09375 11.734375 L 0.09375 9.59375 C 1.0625 9.851562 2.101562 9.984375 3.21875 9.984375 C 4.0625 9.984375 4.804688 9.785156 5.453125 9.390625 C 6.097656 8.992188 6.679688 8.375 7.203125 7.53125 C 7.734375 6.695312 8.34375 5.367188 9.03125 3.546875 C 9.71875 1.734375 10.160156 0.550781 10.359375 0 Z M 0 -27.0625 "/></g></g></g><g fill="#ffffff" fill-opacity="1"><g transform="translate(353.734635, 96.220698)"><g/></g></g><g fill="#ffffff" fill-opacity="1"><g transform="translate(366.979637, 96.220698)"><g><path d="M 11.671875 -1.6875 C 13.234375 -1.6875 14.597656 -1.820312 15.765625 -2.09375 L 15.765625 -0.09375 C 14.566406 0.300781 13.1875 0.5 11.625 0.5 C 9.238281 0.5 7.472656 -0.140625 6.328125 -1.421875 C 5.191406 -2.703125 4.625 -4.710938 4.625 -7.453125 L 4.625 -24.921875 L 0.625 -24.921875 L 0.625 -26.375 L 4.625 -27.5 L 5.875 -33.625 L 7.140625 -33.625 L 7.140625 -27.0625 L 15.09375 -27.0625 L 15.09375 -24.921875 L 7.140625 -24.921875 L 7.140625 -7.796875 C 7.140625 -5.722656 7.503906 -4.1875 8.234375 -3.1875 C 8.972656 -2.1875 10.117188 -1.6875 11.671875 -1.6875 Z M 11.671875 -1.6875 "/></g></g></g><g fill="#ffffff" fill-opacity="1"><g transform="translate(384.058708, 96.220698)"><g><path d="M 23.40625 0 L 23.40625 -17.5625 C 23.40625 -20.28125 22.832031 -22.253906 21.6875 -23.484375 C 20.539062 -24.722656 18.765625 -25.34375 16.359375 -25.34375 C 13.117188 -25.34375 10.75 -24.523438 9.25 -22.890625 C 7.75 -21.253906 7 -18.601562 7 -14.9375 L 7 0 L 4.53125 0 L 4.53125 -38.75 L 7 -38.75 L 7 -26.421875 L 6.875 -22.953125 L 7.046875 -22.953125 C 8.054688 -24.585938 9.332031 -25.769531 10.875 -26.5 C 12.425781 -27.226562 14.347656 -27.59375 16.640625 -27.59375 C 22.773438 -27.59375 25.84375 -24.296875 25.84375 -17.703125 L 25.84375 0 Z M 23.40625 0 "/></g></g></g><g fill="#ffffff" fill-opacity="1"><g transform="translate(414.133826, 96.220698)"><g><path d="M 15.46875 0.5 C 11.53125 0.5 8.460938 -0.710938 6.265625 -3.140625 C 4.066406 -5.566406 2.96875 -8.960938 2.96875 -13.328125 C 2.96875 -17.640625 4.03125 -21.09375 6.15625 -23.6875 C 8.28125 -26.289062 11.144531 -27.59375 14.75 -27.59375 C 17.9375 -27.59375 20.445312 -26.476562 22.28125 -24.25 C 24.125 -22.03125 25.046875 -19.007812 25.046875 -15.1875 L 25.046875 -13.203125 L 5.546875 -13.203125 C 5.585938 -9.484375 6.457031 -6.644531 8.15625 -4.6875 C 9.851562 -2.726562 12.289062 -1.75 15.46875 -1.75 C 17.007812 -1.75 18.363281 -1.851562 19.53125 -2.0625 C 20.707031 -2.28125 22.191406 -2.75 23.984375 -3.46875 L 23.984375 -1.21875 C 22.453125 -0.550781 21.039062 -0.0976562 19.75 0.140625 C 18.457031 0.378906 17.03125 0.5 15.46875 0.5 Z M 14.75 -25.40625 C 12.132812 -25.40625 10.035156 -24.546875 8.453125 -22.828125 C 6.878906 -21.109375 5.960938 -18.628906 5.703125 -15.390625 L 22.4375 -15.390625 C 22.4375 -18.523438 21.753906 -20.976562 20.390625 -22.75 C 19.035156 -24.519531 17.15625 -25.40625 14.75 -25.40625 Z M 14.75 -25.40625 "/></g></g></g><g fill="#ffffff" fill-opacity="1"><g transform="translate(442.117627, 96.220698)"><g/></g></g><g fill="#ffffff" fill-opacity="1"><g transform="translate(455.36263, 96.220698)"><g><path d="M 27.0625 -25.953125 C 27.0625 -22.429688 25.863281 -19.734375 23.46875 -17.859375 C 21.082031 -15.984375 17.703125 -15.046875 13.328125 -15.046875 L 7.6875 -15.046875 L 7.6875 0 L 5.15625 0 L 5.15625 -36.40625 L 14.0625 -36.40625 C 22.726562 -36.40625 27.0625 -32.921875 27.0625 -25.953125 Z M 7.6875 -17.234375 L 12.703125 -17.234375 C 16.796875 -17.234375 19.753906 -17.910156 21.578125 -19.265625 C 23.410156 -20.617188 24.328125 -22.8125 24.328125 -25.84375 C 24.328125 -28.65625 23.460938 -30.734375 21.734375 -32.078125 C 20.015625 -33.429688 17.34375 -34.109375 13.71875 -34.109375 L 7.6875 -34.109375 Z M 7.6875 -17.234375 "/></g></g></g><g fill="#ffffff" fill-opacity="1"><g transform="translate(485.188769, 96.220698)"><g><path d="M 15.1875 -27.59375 C 16.332031 -27.59375 17.5625 -27.476562 18.875 -27.25 L 18.40625 -24.875 C 17.269531 -25.15625 16.097656 -25.296875 14.890625 -25.296875 C 12.585938 -25.296875 10.695312 -24.316406 9.21875 -22.359375 C 7.738281 -20.398438 7 -17.925781 7 -14.9375 L 7 0 L 4.53125 0 L 4.53125 -27.0625 L 6.625 -27.0625 L 6.875 -22.1875 L 7.046875 -22.1875 C 8.160156 -24.175781 9.347656 -25.570312 10.609375 -26.375 C 11.867188 -27.1875 13.394531 -27.59375 15.1875 -27.59375 Z M 15.1875 -27.59375 "/></g></g></g><g fill="#ffffff" fill-opacity="1"><g transform="translate(505.031359, 96.220698)"><g><path d="M 26.921875 -13.578125 C 26.921875 -9.160156 25.847656 -5.707031 23.703125 -3.21875 C 21.566406 -0.738281 18.613281 0.5 14.84375 0.5 C 12.46875 0.5 10.375 -0.0703125 8.5625 -1.21875 C 6.757812 -2.363281 5.375 -4.003906 4.40625 -6.140625 C 3.445312 -8.285156 2.96875 -10.765625 2.96875 -13.578125 C 2.96875 -17.992188 4.035156 -21.429688 6.171875 -23.890625 C 8.316406 -26.359375 11.253906 -27.59375 14.984375 -27.59375 C 18.703125 -27.59375 21.617188 -26.34375 23.734375 -23.84375 C 25.859375 -21.34375 26.921875 -17.921875 26.921875 -13.578125 Z M 5.546875 -13.578125 C 5.546875 -9.859375 6.363281 -6.957031 8 -4.875 C 9.632812 -2.789062 11.945312 -1.75 14.9375 -1.75 C 17.925781 -1.75 20.238281 -2.789062 21.875 -4.875 C 23.507812 -6.957031 24.328125 -9.859375 24.328125 -13.578125 C 24.328125 -17.304688 23.5 -20.195312 21.84375 -22.25 C 20.195312 -24.3125 17.878906 -25.34375 14.890625 -25.34375 C 11.898438 -25.34375 9.59375 -24.316406 7.96875 -22.265625 C 6.351562 -20.222656 5.546875 -17.328125 5.546875 -13.578125 Z M 5.546875 -13.578125 "/></g></g></g><g fill="#ffffff" fill-opacity="1"><g transform="translate(534.907304, 96.220698)"><g><path d="M 15.96875 -27.59375 C 19.75 -27.59375 22.597656 -26.398438 24.515625 -24.015625 C 26.429688 -21.628906 27.390625 -18.148438 27.390625 -13.578125 C 27.390625 -9.078125 26.378906 -5.601562 24.359375 -3.15625 C 22.347656 -0.71875 19.515625 0.5 15.859375 0.5 C 13.929688 0.5 12.195312 0.101562 10.65625 -0.6875 C 9.113281 -1.488281 7.894531 -2.617188 7 -4.078125 L 6.78125 -4.078125 L 6.078125 0 L 4.53125 0 L 4.53125 -38.75 L 7 -38.75 L 7 -29.015625 C 7 -27.546875 6.960938 -26.203125 6.890625 -24.984375 L 6.828125 -22.859375 L 7 -22.859375 C 8.03125 -24.484375 9.269531 -25.675781 10.71875 -26.4375 C 12.175781 -27.207031 13.925781 -27.59375 15.96875 -27.59375 Z M 15.90625 -25.34375 C 12.71875 -25.34375 10.4375 -24.429688 9.0625 -22.609375 C 7.6875 -20.785156 7 -17.773438 7 -13.578125 L 7 -13.15625 C 7 -9.0625 7.71875 -6.125 9.15625 -4.34375 C 10.59375 -2.570312 12.828125 -1.6875 15.859375 -1.6875 C 18.816406 -1.6875 21.039062 -2.71875 22.53125 -4.78125 C 24.03125 -6.851562 24.78125 -9.800781 24.78125 -13.625 C 24.78125 -21.4375 21.820312 -25.34375 15.90625 -25.34375 Z M 15.90625 -25.34375 "/></g></g></g><g fill="#ffffff" fill-opacity="1"><g transform="translate(565.256302, 96.220698)"><g><path d="M 7 0 L 4.53125 0 L 4.53125 -38.75 L 7 -38.75 Z M 7 0 "/></g></g></g><g fill="#ffffff" fill-opacity="1"><g transform="translate(576.783431, 96.220698)"><g><path d="M 15.46875 0.5 C 11.53125 0.5 8.460938 -0.710938 6.265625 -3.140625 C 4.066406 -5.566406 2.96875 -8.960938 2.96875 -13.328125 C 2.96875 -17.640625 4.03125 -21.09375 6.15625 -23.6875 C 8.28125 -26.289062 11.144531 -27.59375 14.75 -27.59375 C 17.9375 -27.59375 20.445312 -26.476562 22.28125 -24.25 C 24.125 -22.03125 25.046875 -19.007812 25.046875 -15.1875 L 25.046875 -13.203125 L 5.546875 -13.203125 C 5.585938 -9.484375 6.457031 -6.644531 8.15625 -4.6875 C 9.851562 -2.726562 12.289062 -1.75 15.46875 -1.75 C 17.007812 -1.75 18.363281 -1.851562 19.53125 -2.0625 C 20.707031 -2.28125 22.191406 -2.75 23.984375 -3.46875 L 23.984375 -1.21875 C 22.453125 -0.550781 21.039062 -0.0976562 19.75 0.140625 C 18.457031 0.378906 17.03125 0.5 15.46875 0.5 Z M 14.75 -25.40625 C 12.132812 -25.40625 10.035156 -24.546875 8.453125 -22.828125 C 6.878906 -21.109375 5.960938 -18.628906 5.703125 -15.390625 L 22.4375 -15.390625 C 22.4375 -18.523438 21.753906 -20.976562 20.390625 -22.75 C 19.035156 -24.519531 17.15625 -25.40625 14.75 -25.40625 Z M 14.75 -25.40625 "/></g></g></g><g fill="#ffffff" fill-opacity="1"><g transform="translate(604.767256, 96.220698)"><g><path d="M 38.34375 0 L 38.34375 -17.75 C 38.34375 -20.394531 37.828125 -22.320312 36.796875 -23.53125 C 35.773438 -24.738281 34.203125 -25.34375 32.078125 -25.34375 C 29.304688 -25.34375 27.253906 -24.578125 25.921875 -23.046875 C 24.597656 -21.523438 23.9375 -19.128906 23.9375 -15.859375 L 23.9375 0 L 21.421875 0 L 21.421875 -18.5 C 21.421875 -23.0625 19.328125 -25.34375 15.140625 -25.34375 C 12.296875 -25.34375 10.226562 -24.515625 8.9375 -22.859375 C 7.644531 -21.210938 7 -18.570312 7 -14.9375 L 7 0 L 4.53125 0 L 4.53125 -27.0625 L 6.578125 -27.0625 L 7.09375 -23.359375 L 7.25 -23.359375 C 8 -24.703125 9.0625 -25.742188 10.4375 -26.484375 C 11.8125 -27.222656 13.328125 -27.59375 14.984375 -27.59375 C 19.253906 -27.59375 21.992188 -25.988281 23.203125 -22.78125 L 23.3125 -22.78125 C 24.1875 -24.332031 25.367188 -25.519531 26.859375 -26.34375 C 28.347656 -27.175781 30.035156 -27.59375 31.921875 -27.59375 C 34.878906 -27.59375 37.097656 -26.800781 38.578125 -25.21875 C 40.054688 -23.644531 40.796875 -21.140625 40.796875 -17.703125 L 40.796875 0 Z M 38.34375 0 "/></g></g></g><g fill="#ffffff" fill-opacity="1"><g transform="translate(649.780346, 96.220698)"><g><path d="M 21.3125 -7.046875 C 21.3125 -4.617188 20.390625 -2.753906 18.546875 -1.453125 C 16.703125 -0.148438 14.085938 0.5 10.703125 0.5 C 7.085938 0.5 4.21875 -0.0546875 2.09375 -1.171875 L 2.09375 -3.828125 C 4.8125 -2.472656 7.679688 -1.796875 10.703125 -1.796875 C 13.378906 -1.796875 15.410156 -2.238281 16.796875 -3.125 C 18.179688 -4.007812 18.875 -5.191406 18.875 -6.671875 C 18.875 -8.035156 18.320312 -9.179688 17.21875 -10.109375 C 16.113281 -11.035156 14.300781 -11.945312 11.78125 -12.84375 C 9.070312 -13.820312 7.171875 -14.664062 6.078125 -15.375 C 4.984375 -16.082031 4.15625 -16.878906 3.59375 -17.765625 C 3.039062 -18.648438 2.765625 -19.734375 2.765625 -21.015625 C 2.765625 -23.046875 3.613281 -24.648438 5.3125 -25.828125 C 7.019531 -27.003906 9.398438 -27.59375 12.453125 -27.59375 C 15.367188 -27.59375 18.140625 -27.046875 20.765625 -25.953125 L 19.84375 -23.703125 C 17.1875 -24.796875 14.722656 -25.34375 12.453125 -25.34375 C 10.242188 -25.34375 8.488281 -24.976562 7.1875 -24.25 C 5.894531 -23.519531 5.25 -22.507812 5.25 -21.21875 C 5.25 -19.800781 5.75 -18.671875 6.75 -17.828125 C 7.757812 -16.984375 9.726562 -16.035156 12.65625 -14.984375 C 15.09375 -14.109375 16.863281 -13.316406 17.96875 -12.609375 C 19.082031 -11.910156 19.914062 -11.109375 20.46875 -10.203125 C 21.03125 -9.304688 21.3125 -8.253906 21.3125 -7.046875 Z M 21.3125 -7.046875 "/></g></g></g><g fill="#ffffff" fill-opacity="1"><g transform="translate(233.258501, 287.475022)"><g><path d="M 7.6875 0 L 5.15625 0 L 5.15625 -36.40625 L 25.109375 -36.40625 L 25.109375 -34.0625 L 7.6875 -34.0625 L 7.6875 -18.625 L 24.125 -18.625 L 24.125 -16.265625 L 7.6875 -16.265625 Z M 7.6875 0 "/></g></g><g transform="translate(258.858109, 287.475022)"><g><path d="M 7 0 L 4.53125 0 L 4.53125 -27.0625 L 7 -27.0625 Z M 4.1875 -34.59375 C 4.1875 -36.1875 4.707031 -36.984375 5.75 -36.984375 C 6.269531 -36.984375 6.671875 -36.773438 6.953125 -36.359375 C 7.242188 -35.941406 7.390625 -35.351562 7.390625 -34.59375 C 7.390625 -33.84375 7.242188 -33.25 6.953125 -32.8125 C 6.671875 -32.382812 6.269531 -32.171875 5.75 -32.171875 C 4.707031 -32.171875 4.1875 -32.976562 4.1875 -34.59375 Z M 4.1875 -34.59375 "/></g></g><g transform="translate(270.387894, 287.475022)"><g><path d="M 23.40625 0 L 23.40625 -17.5625 C 23.40625 -20.28125 22.832031 -22.253906 21.6875 -23.484375 C 20.539062 -24.722656 18.765625 -25.34375 16.359375 -25.34375 C 13.117188 -25.34375 10.75 -24.523438 9.25 -22.890625 C 7.75 -21.253906 7 -18.601562 7 -14.9375 L 7 0 L 4.53125 0 L 4.53125 -27.0625 L 6.625 -27.0625 L 7.09375 -23.359375 L 7.25 -23.359375 C 9.007812 -26.179688 12.140625 -27.59375 16.640625 -27.59375 C 22.773438 -27.59375 25.84375 -24.296875 25.84375 -17.703125 L 25.84375 0 Z M 23.40625 0 "/></g></g><g transform="translate(300.469924, 287.475022)"><g><path d="M 14.4375 -27.59375 C 16.394531 -27.59375 18.085938 -27.234375 19.515625 -26.515625 C 20.953125 -25.804688 22.234375 -24.585938 23.359375 -22.859375 L 23.515625 -22.859375 C 23.410156 -24.953125 23.359375 -27.003906 23.359375 -29.015625 L 23.359375 -38.75 L 25.796875 -38.75 L 25.796875 0 L 24.1875 0 L 23.5625 -4.140625 L 23.359375 -4.140625 C 21.296875 -1.046875 18.34375 0.5 14.5 0.5 C 10.757812 0.5 7.898438 -0.660156 5.921875 -2.984375 C 3.953125 -5.304688 2.96875 -8.695312 2.96875 -13.15625 C 2.96875 -17.832031 3.945312 -21.40625 5.90625 -23.875 C 7.863281 -26.351562 10.707031 -27.59375 14.4375 -27.59375 Z M 14.4375 -25.34375 C 11.488281 -25.34375 9.269531 -24.304688 7.78125 -22.234375 C 6.289062 -20.160156 5.546875 -17.148438 5.546875 -13.203125 C 5.546875 -5.523438 8.53125 -1.6875 14.5 -1.6875 C 17.550781 -1.6875 19.789062 -2.570312 21.21875 -4.34375 C 22.644531 -6.125 23.359375 -9.0625 23.359375 -13.15625 L 23.359375 -13.578125 C 23.359375 -17.753906 22.65625 -20.757812 21.25 -22.59375 C 19.851562 -24.425781 17.582031 -25.34375 14.4375 -25.34375 Z M 14.4375 -25.34375 "/></g></g><g transform="translate(330.82588, 287.475022)"><g/></g><g transform="translate(344.073926, 287.475022)"><g><path d="M 25.25 -9.390625 C 25.25 -6.347656 24.128906 -3.9375 21.890625 -2.15625 C 19.660156 -0.382812 16.695312 0.5 13 0.5 C 8.550781 0.5 5.140625 0.0078125 2.765625 -0.96875 L 2.765625 -3.515625 C 5.390625 -2.398438 8.734375 -1.84375 12.796875 -1.84375 C 15.785156 -1.84375 18.15625 -2.523438 19.90625 -3.890625 C 21.65625 -5.265625 22.53125 -7.0625 22.53125 -9.28125 C 22.53125 -10.664062 22.238281 -11.804688 21.65625 -12.703125 C 21.082031 -13.609375 20.140625 -14.4375 18.828125 -15.1875 C 17.515625 -15.9375 15.585938 -16.742188 13.046875 -17.609375 C 9.328125 -18.890625 6.757812 -20.269531 5.34375 -21.75 C 3.925781 -23.238281 3.21875 -25.21875 3.21875 -27.6875 C 3.21875 -30.414062 4.28125 -32.640625 6.40625 -34.359375 C 8.539062 -36.078125 11.285156 -36.9375 14.640625 -36.9375 C 18.054688 -36.9375 21.269531 -36.285156 24.28125 -34.984375 L 23.359375 -32.796875 C 20.335938 -34.054688 17.445312 -34.6875 14.6875 -34.6875 C 12 -34.6875 9.859375 -34.0625 8.265625 -32.8125 C 6.671875 -31.570312 5.875 -29.878906 5.875 -27.734375 C 5.875 -26.390625 6.117188 -25.285156 6.609375 -24.421875 C 7.097656 -23.566406 7.898438 -22.789062 9.015625 -22.09375 C 10.128906 -21.40625 12.039062 -20.582031 14.75 -19.625 C 17.582031 -18.644531 19.710938 -17.691406 21.140625 -16.765625 C 22.566406 -15.847656 23.609375 -14.800781 24.265625 -13.625 C 24.921875 -12.457031 25.25 -11.046875 25.25 -9.390625 Z M 25.25 -9.390625 "/></g></g><g transform="translate(371.864941, 287.475022)"><g><path d="M 26.921875 -13.578125 C 26.921875 -9.160156 25.847656 -5.707031 23.703125 -3.21875 C 21.566406 -0.738281 18.613281 0.5 14.84375 0.5 C 12.46875 0.5 10.375 -0.0703125 8.5625 -1.21875 C 6.757812 -2.363281 5.375 -4.003906 4.40625 -6.140625 C 3.445312 -8.285156 2.96875 -10.765625 2.96875 -13.578125 C 2.96875 -17.992188 4.035156 -21.429688 6.171875 -23.890625 C 8.316406 -26.359375 11.253906 -27.59375 14.984375 -27.59375 C 18.703125 -27.59375 21.617188 -26.34375 23.734375 -23.84375 C 25.859375 -21.34375 26.921875 -17.921875 26.921875 -13.578125 Z M 5.546875 -13.578125 C 5.546875 -9.859375 6.363281 -6.957031 8 -4.875 C 9.632812 -2.789062 11.945312 -1.75 14.9375 -1.75 C 17.925781 -1.75 20.238281 -2.789062 21.875 -4.875 C 23.507812 -6.957031 24.328125 -9.859375 24.328125 -13.578125 C 24.328125 -17.304688 23.5 -20.195312 21.84375 -22.25 C 20.195312 -24.3125 17.878906 -25.34375 14.890625 -25.34375 C 11.898438 -25.34375 9.59375 -24.316406 7.96875 -22.265625 C 6.351562 -20.222656 5.546875 -17.328125 5.546875 -13.578125 Z M 5.546875 -13.578125 "/></g></g><g transform="translate(401.747752, 287.475022)"><g><path d="M 7 0 L 4.53125 0 L 4.53125 -38.75 L 7 -38.75 Z M 7 0 "/></g></g><g transform="translate(413.277537, 287.475022)"><g><path d="M 6.671875 -27.0625 L 6.671875 -9.53125 C 6.671875 -6.8125 7.242188 -4.832031 8.390625 -3.59375 C 9.535156 -2.363281 11.3125 -1.75 13.71875 -1.75 C 16.9375 -1.75 19.304688 -2.5625 20.828125 -4.1875 C 22.347656 -5.8125 23.109375 -8.457031 23.109375 -12.125 L 23.109375 -27.0625 L 25.546875 -27.0625 L 25.546875 0 L 23.453125 0 L 23.015625 -3.734375 L 22.859375 -3.734375 C 21.097656 -0.910156 17.96875 0.5 13.46875 0.5 C 7.3125 0.5 4.234375 -2.796875 4.234375 -9.390625 L 4.234375 -27.0625 Z M 6.671875 -27.0625 "/></g></g><g transform="translate(443.359567, 287.475022)"><g><path d="M 11.671875 -1.6875 C 13.234375 -1.6875 14.597656 -1.820312 15.765625 -2.09375 L 15.765625 -0.09375 C 14.566406 0.300781 13.1875 0.5 11.625 0.5 C 9.238281 0.5 7.472656 -0.140625 6.328125 -1.421875 C 5.191406 -2.703125 4.625 -4.710938 4.625 -7.453125 L 4.625 -24.921875 L 0.625 -24.921875 L 0.625 -26.375 L 4.625 -27.5 L 5.875 -33.625 L 7.140625 -33.625 L 7.140625 -27.0625 L 15.09375 -27.0625 L 15.09375 -24.921875 L 7.140625 -24.921875 L 7.140625 -7.796875 C 7.140625 -5.722656 7.503906 -4.1875 8.234375 -3.1875 C 8.972656 -2.1875 10.117188 -1.6875 11.671875 -1.6875 Z M 11.671875 -1.6875 "/></g></g><g transform="translate(460.442574, 287.475022)"><g><path d="M 7 0 L 4.53125 0 L 4.53125 -27.0625 L 7 -27.0625 Z M 4.1875 -34.59375 C 4.1875 -36.1875 4.707031 -36.984375 5.75 -36.984375 C 6.269531 -36.984375 6.671875 -36.773438 6.953125 -36.359375 C 7.242188 -35.941406 7.390625 -35.351562 7.390625 -34.59375 C 7.390625 -33.84375 7.242188 -33.25 6.953125 -32.8125 C 6.671875 -32.382812 6.269531 -32.171875 5.75 -32.171875 C 4.707031 -32.171875 4.1875 -32.976562 4.1875 -34.59375 Z M 4.1875 -34.59375 "/></g></g><g transform="translate(471.972359, 287.475022)"><g><path d="M 26.921875 -13.578125 C 26.921875 -9.160156 25.847656 -5.707031 23.703125 -3.21875 C 21.566406 -0.738281 18.613281 0.5 14.84375 0.5 C 12.46875 0.5 10.375 -0.0703125 8.5625 -1.21875 C 6.757812 -2.363281 5.375 -4.003906 4.40625 -6.140625 C 3.445312 -8.285156 2.96875 -10.765625 2.96875 -13.578125 C 2.96875 -17.992188 4.035156 -21.429688 6.171875 -23.890625 C 8.316406 -26.359375 11.253906 -27.59375 14.984375 -27.59375 C 18.703125 -27.59375 21.617188 -26.34375 23.734375 -23.84375 C 25.859375 -21.34375 26.921875 -17.921875 26.921875 -13.578125 Z M 5.546875 -13.578125 C 5.546875 -9.859375 6.363281 -6.957031 8 -4.875 C 9.632812 -2.789062 11.945312 -1.75 14.9375 -1.75 C 17.925781 -1.75 20.238281 -2.789062 21.875 -4.875 C 23.507812 -6.957031 24.328125 -9.859375 24.328125 -13.578125 C 24.328125 -17.304688 23.5 -20.195312 21.84375 -22.25 C 20.195312 -24.3125 17.878906 -25.34375 14.890625 -25.34375 C 11.898438 -25.34375 9.59375 -24.316406 7.96875 -22.265625 C 6.351562 -20.222656 5.546875 -17.328125 5.546875 -13.578125 Z M 5.546875 -13.578125 "/></g></g><g transform="translate(501.85517, 287.475022)"><g><path d="M 23.40625 0 L 23.40625 -17.5625 C 23.40625 -20.28125 22.832031 -22.253906 21.6875 -23.484375 C 20.539062 -24.722656 18.765625 -25.34375 16.359375 -25.34375 C 13.117188 -25.34375 10.75 -24.523438 9.25 -22.890625 C 7.75 -21.253906 7 -18.601562 7 -14.9375 L 7 0 L 4.53125 0 L 4.53125 -27.0625 L 6.625 -27.0625 L 7.09375 -23.359375 L 7.25 -23.359375 C 9.007812 -26.179688 12.140625 -27.59375 16.640625 -27.59375 C 22.773438 -27.59375 25.84375 -24.296875 25.84375 -17.703125 L 25.84375 0 Z M 23.40625 0 "/></g></g></g><g fill="#ffffff" fill-opacity="1"><g transform="translate(46.620488, 479.025)"><g/></g></g><g fill="#ffffff" fill-opacity="1"><g transform="translate(59.874393, 479.025)"><g><path d="M 5.15625 0 L 5.15625 -36.40625 L 7.6875 -36.40625 L 7.6875 0 Z M 5.15625 0 "/></g></g><g transform="translate(72.724002, 479.025)"><g><path d="M 38.34375 0 L 38.34375 -17.75 C 38.34375 -20.394531 37.828125 -22.320312 36.796875 -23.53125 C 35.773438 -24.738281 34.203125 -25.34375 32.078125 -25.34375 C 29.304688 -25.34375 27.253906 -24.578125 25.921875 -23.046875 C 24.597656 -21.523438 23.9375 -19.128906 23.9375 -15.859375 L 23.9375 0 L 21.421875 0 L 21.421875 -18.5 C 21.421875 -23.0625 19.328125 -25.34375 15.140625 -25.34375 C 12.296875 -25.34375 10.226562 -24.515625 8.9375 -22.859375 C 7.644531 -21.210938 7 -18.570312 7 -14.9375 L 7 0 L 4.53125 0 L 4.53125 -27.0625 L 6.578125 -27.0625 L 7.09375 -23.359375 L 7.25 -23.359375 C 8 -24.703125 9.0625 -25.742188 10.4375 -26.484375 C 11.8125 -27.222656 13.328125 -27.59375 14.984375 -27.59375 C 19.253906 -27.59375 21.992188 -25.988281 23.203125 -22.78125 L 23.3125 -22.78125 C 24.1875 -24.332031 25.367188 -25.519531 26.859375 -26.34375 C 28.347656 -27.175781 30.035156 -27.59375 31.921875 -27.59375 C 34.878906 -27.59375 37.097656 -26.800781 38.578125 -25.21875 C 40.054688 -23.644531 40.796875 -21.140625 40.796875 -17.703125 L 40.796875 0 Z M 38.34375 0 "/></g></g><g transform="translate(117.747438, 479.025)"><g><path d="M 16.109375 0.5 C 11.941406 0.5 8.90625 -1.0625 7 -4.1875 L 6.828125 -4.1875 L 6.890625 -2.09375 C 6.960938 -0.863281 7 0.476562 7 1.9375 L 7 12.25 L 4.53125 12.25 L 4.53125 -27.0625 L 6.625 -27.0625 L 7.09375 -23.203125 L 7.25 -23.203125 C 9.101562 -26.128906 12.070312 -27.59375 16.15625 -27.59375 C 19.8125 -27.59375 22.597656 -26.390625 24.515625 -23.984375 C 26.429688 -21.585938 27.390625 -18.097656 27.390625 -13.515625 C 27.390625 -9.066406 26.378906 -5.617188 24.359375 -3.171875 C 22.347656 -0.722656 19.597656 0.5 16.109375 0.5 Z M 16.0625 -1.6875 C 18.832031 -1.6875 20.976562 -2.71875 22.5 -4.78125 C 24.019531 -6.84375 24.78125 -9.722656 24.78125 -13.421875 C 24.78125 -21.367188 21.90625 -25.34375 16.15625 -25.34375 C 13.007812 -25.34375 10.695312 -24.472656 9.21875 -22.734375 C 7.738281 -21.003906 7 -18.179688 7 -14.265625 L 7 -13.46875 C 7 -9.238281 7.707031 -6.21875 9.125 -4.40625 C 10.539062 -2.59375 12.851562 -1.6875 16.0625 -1.6875 Z M 16.0625 -1.6875 "/></g></g><g transform="translate(148.103394, 479.025)"><g><path d="M 7 0 L 4.53125 0 L 4.53125 -38.75 L 7 -38.75 Z M 7 0 "/></g></g><g transform="translate(159.633178, 479.025)"><g><path d="M 15.46875 0.5 C 11.53125 0.5 8.460938 -0.710938 6.265625 -3.140625 C 4.066406 -5.566406 2.96875 -8.960938 2.96875 -13.328125 C 2.96875 -17.640625 4.03125 -21.09375 6.15625 -23.6875 C 8.28125 -26.289062 11.144531 -27.59375 14.75 -27.59375 C 17.9375 -27.59375 20.445312 -26.476562 22.28125 -24.25 C 24.125 -22.03125 25.046875 -19.007812 25.046875 -15.1875 L 25.046875 -13.203125 L 5.546875 -13.203125 C 5.585938 -9.484375 6.457031 -6.644531 8.15625 -4.6875 C 9.851562 -2.726562 12.289062 -1.75 15.46875 -1.75 C 17.007812 -1.75 18.363281 -1.851562 19.53125 -2.0625 C 20.707031 -2.28125 22.191406 -2.75 23.984375 -3.46875 L 23.984375 -1.21875 C 22.453125 -0.550781 21.039062 -0.0976562 19.75 0.140625 C 18.457031 0.378906 17.03125 0.5 15.46875 0.5 Z M 14.75 -25.40625 C 12.132812 -25.40625 10.035156 -24.546875 8.453125 -22.828125 C 6.878906 -21.109375 5.960938 -18.628906 5.703125 -15.390625 L 22.4375 -15.390625 C 22.4375 -18.523438 21.753906 -20.976562 20.390625 -22.75 C 19.035156 -24.519531 17.15625 -25.40625 14.75 -25.40625 Z M 14.75 -25.40625 "/></g></g><g transform="translate(187.623412, 479.025)"><g><path d="M 38.34375 0 L 38.34375 -17.75 C 38.34375 -20.394531 37.828125 -22.320312 36.796875 -23.53125 C 35.773438 -24.738281 34.203125 -25.34375 32.078125 -25.34375 C 29.304688 -25.34375 27.253906 -24.578125 25.921875 -23.046875 C 24.597656 -21.523438 23.9375 -19.128906 23.9375 -15.859375 L 23.9375 0 L 21.421875 0 L 21.421875 -18.5 C 21.421875 -23.0625 19.328125 -25.34375 15.140625 -25.34375 C 12.296875 -25.34375 10.226562 -24.515625 8.9375 -22.859375 C 7.644531 -21.210938 7 -18.570312 7 -14.9375 L 7 0 L 4.53125 0 L 4.53125 -27.0625 L 6.578125 -27.0625 L 7.09375 -23.359375 L 7.25 -23.359375 C 8 -24.703125 9.0625 -25.742188 10.4375 -26.484375 C 11.8125 -27.222656 13.328125 -27.59375 14.984375 -27.59375 C 19.253906 -27.59375 21.992188 -25.988281 23.203125 -22.78125 L 23.3125 -22.78125 C 24.1875 -24.332031 25.367188 -25.519531 26.859375 -26.34375 C 28.347656 -27.175781 30.035156 -27.59375 31.921875 -27.59375 C 34.878906 -27.59375 37.097656 -26.800781 38.578125 -25.21875 C 40.054688 -23.644531 40.796875 -21.140625 40.796875 -17.703125 L 40.796875 0 Z M 38.34375 0 "/></g></g><g transform="translate(232.646847, 479.025)"><g><path d="M 15.46875 0.5 C 11.53125 0.5 8.460938 -0.710938 6.265625 -3.140625 C 4.066406 -5.566406 2.96875 -8.960938 2.96875 -13.328125 C 2.96875 -17.640625 4.03125 -21.09375 6.15625 -23.6875 C 8.28125 -26.289062 11.144531 -27.59375 14.75 -27.59375 C 17.9375 -27.59375 20.445312 -26.476562 22.28125 -24.25 C 24.125 -22.03125 25.046875 -19.007812 25.046875 -15.1875 L 25.046875 -13.203125 L 5.546875 -13.203125 C 5.585938 -9.484375 6.457031 -6.644531 8.15625 -4.6875 C 9.851562 -2.726562 12.289062 -1.75 15.46875 -1.75 C 17.007812 -1.75 18.363281 -1.851562 19.53125 -2.0625 C 20.707031 -2.28125 22.191406 -2.75 23.984375 -3.46875 L 23.984375 -1.21875 C 22.453125 -0.550781 21.039062 -0.0976562 19.75 0.140625 C 18.457031 0.378906 17.03125 0.5 15.46875 0.5 Z M 14.75 -25.40625 C 12.132812 -25.40625 10.035156 -24.546875 8.453125 -22.828125 C 6.878906 -21.109375 5.960938 -18.628906 5.703125 -15.390625 L 22.4375 -15.390625 C 22.4375 -18.523438 21.753906 -20.976562 20.390625 -22.75 C 19.035156 -24.519531 17.15625 -25.40625 14.75 -25.40625 Z M 14.75 -25.40625 "/></g></g><g transform="translate(260.637081, 479.025)"><g><path d="M 23.40625 0 L 23.40625 -17.5625 C 23.40625 -20.28125 22.832031 -22.253906 21.6875 -23.484375 C 20.539062 -24.722656 18.765625 -25.34375 16.359375 -25.34375 C 13.117188 -25.34375 10.75 -24.523438 9.25 -22.890625 C 7.75 -21.253906 7 -18.601562 7 -14.9375 L 7 0 L 4.53125 0 L 4.53125 -27.0625 L 6.625 -27.0625 L 7.09375 -23.359375 L 7.25 -23.359375 C 9.007812 -26.179688 12.140625 -27.59375 16.640625 -27.59375 C 22.773438 -27.59375 25.84375 -24.296875 25.84375 -17.703125 L 25.84375 0 Z M 23.40625 0 "/></g></g><g transform="translate(290.719111, 479.025)"><g><path d="M 11.671875 -1.6875 C 13.234375 -1.6875 14.597656 -1.820312 15.765625 -2.09375 L 15.765625 -0.09375 C 14.566406 0.300781 13.1875 0.5 11.625 0.5 C 9.238281 0.5 7.472656 -0.140625 6.328125 -1.421875 C 5.191406 -2.703125 4.625 -4.710938 4.625 -7.453125 L 4.625 -24.921875 L 0.625 -24.921875 L 0.625 -26.375 L 4.625 -27.5 L 5.875 -33.625 L 7.140625 -33.625 L 7.140625 -27.0625 L 15.09375 -27.0625 L 15.09375 -24.921875 L 7.140625 -24.921875 L 7.140625 -7.796875 C 7.140625 -5.722656 7.503906 -4.1875 8.234375 -3.1875 C 8.972656 -2.1875 10.117188 -1.6875 11.671875 -1.6875 Z M 11.671875 -1.6875 "/></g></g><g transform="translate(307.802118, 479.025)"><g/></g><g transform="translate(321.050165, 479.025)"><g><path d="M 7 0 L 4.53125 0 L 4.53125 -27.0625 L 7 -27.0625 Z M 4.1875 -34.59375 C 4.1875 -36.1875 4.707031 -36.984375 5.75 -36.984375 C 6.269531 -36.984375 6.671875 -36.773438 6.953125 -36.359375 C 7.242188 -35.941406 7.390625 -35.351562 7.390625 -34.59375 C 7.390625 -33.84375 7.242188 -33.25 6.953125 -32.8125 C 6.671875 -32.382812 6.269531 -32.171875 5.75 -32.171875 C 4.707031 -32.171875 4.1875 -32.976562 4.1875 -34.59375 Z M 4.1875 -34.59375 "/></g></g><g transform="translate(332.579949, 479.025)"><g><path d="M 23.40625 0 L 23.40625 -17.5625 C 23.40625 -20.28125 22.832031 -22.253906 21.6875 -23.484375 C 20.539062 -24.722656 18.765625 -25.34375 16.359375 -25.34375 C 13.117188 -25.34375 10.75 -24.523438 9.25 -22.890625 C 7.75 -21.253906 7 -18.601562 7 -14.9375 L 7 0 L 4.53125 0 L 4.53125 -27.0625 L 6.625 -27.0625 L 7.09375 -23.359375 L 7.25 -23.359375 C 9.007812 -26.179688 12.140625 -27.59375 16.640625 -27.59375 C 22.773438 -27.59375 25.84375 -24.296875 25.84375 -17.703125 L 25.84375 0 Z M 23.40625 0 "/></g></g><g transform="translate(362.661979, 479.025)"><g/></g><g transform="translate(375.910026, 479.025)"><g><path d="M 27.0625 -25.953125 C 27.0625 -22.429688 25.863281 -19.734375 23.46875 -17.859375 C 21.082031 -15.984375 17.703125 -15.046875 13.328125 -15.046875 L 7.6875 -15.046875 L 7.6875 0 L 5.15625 0 L 5.15625 -36.40625 L 14.0625 -36.40625 C 22.726562 -36.40625 27.0625 -32.921875 27.0625 -25.953125 Z M 7.6875 -17.234375 L 12.703125 -17.234375 C 16.796875 -17.234375 19.753906 -17.910156 21.578125 -19.265625 C 23.410156 -20.617188 24.328125 -22.8125 24.328125 -25.84375 C 24.328125 -28.65625 23.460938 -30.734375 21.734375 -32.078125 C 20.015625 -33.429688 17.34375 -34.109375 13.71875 -34.109375 L 7.6875 -34.109375 Z M 7.6875 -17.234375 "/></g></g><g transform="translate(405.743033, 479.025)"><g><path d="M 15.1875 -27.59375 C 16.332031 -27.59375 17.5625 -27.476562 18.875 -27.25 L 18.40625 -24.875 C 17.269531 -25.15625 16.097656 -25.296875 14.890625 -25.296875 C 12.585938 -25.296875 10.695312 -24.316406 9.21875 -22.359375 C 7.738281 -20.398438 7 -17.925781 7 -14.9375 L 7 0 L 4.53125 0 L 4.53125 -27.0625 L 6.625 -27.0625 L 6.875 -22.1875 L 7.046875 -22.1875 C 8.160156 -24.175781 9.347656 -25.570312 10.609375 -26.375 C 11.867188 -27.1875 13.394531 -27.59375 15.1875 -27.59375 Z M 15.1875 -27.59375 "/></g></g><g transform="translate(425.5902, 479.025)"><g><path d="M 26.921875 -13.578125 C 26.921875 -9.160156 25.847656 -5.707031 23.703125 -3.21875 C 21.566406 -0.738281 18.613281 0.5 14.84375 0.5 C 12.46875 0.5 10.375 -0.0703125 8.5625 -1.21875 C 6.757812 -2.363281 5.375 -4.003906 4.40625 -6.140625 C 3.445312 -8.285156 2.96875 -10.765625 2.96875 -13.578125 C 2.96875 -17.992188 4.035156 -21.429688 6.171875 -23.890625 C 8.316406 -26.359375 11.253906 -27.59375 14.984375 -27.59375 C 18.703125 -27.59375 21.617188 -26.34375 23.734375 -23.84375 C 25.859375 -21.34375 26.921875 -17.921875 26.921875 -13.578125 Z M 5.546875 -13.578125 C 5.546875 -9.859375 6.363281 -6.957031 8 -4.875 C 9.632812 -2.789062 11.945312 -1.75 14.9375 -1.75 C 17.925781 -1.75 20.238281 -2.789062 21.875 -4.875 C 23.507812 -6.957031 24.328125 -9.859375 24.328125 -13.578125 C 24.328125 -17.304688 23.5 -20.195312 21.84375 -22.25 C 20.195312 -24.3125 17.878906 -25.34375 14.890625 -25.34375 C 11.898438 -25.34375 9.59375 -24.316406 7.96875 -22.265625 C 6.351562 -20.222656 5.546875 -17.328125 5.546875 -13.578125 Z M 5.546875 -13.578125 "/></g></g><g transform="translate(455.473011, 479.025)"><g><path d="M 16.109375 0.5 C 11.941406 0.5 8.90625 -1.0625 7 -4.1875 L 6.828125 -4.1875 L 6.890625 -2.09375 C 6.960938 -0.863281 7 0.476562 7 1.9375 L 7 12.25 L 4.53125 12.25 L 4.53125 -27.0625 L 6.625 -27.0625 L 7.09375 -23.203125 L 7.25 -23.203125 C 9.101562 -26.128906 12.070312 -27.59375 16.15625 -27.59375 C 19.8125 -27.59375 22.597656 -26.390625 24.515625 -23.984375 C 26.429688 -21.585938 27.390625 -18.097656 27.390625 -13.515625 C 27.390625 -9.066406 26.378906 -5.617188 24.359375 -3.171875 C 22.347656 -0.722656 19.597656 0.5 16.109375 0.5 Z M 16.0625 -1.6875 C 18.832031 -1.6875 20.976562 -2.71875 22.5 -4.78125 C 24.019531 -6.84375 24.78125 -9.722656 24.78125 -13.421875 C 24.78125 -21.367188 21.90625 -25.34375 16.15625 -25.34375 C 13.007812 -25.34375 10.695312 -24.472656 9.21875 -22.734375 C 7.738281 -21.003906 7 -18.179688 7 -14.265625 L 7 -13.46875 C 7 -9.238281 7.707031 -6.21875 9.125 -4.40625 C 10.539062 -2.59375 12.851562 -1.6875 16.0625 -1.6875 Z M 16.0625 -1.6875 "/></g></g><g transform="translate(485.828967, 479.025)"><g><path d="M 15.46875 0.5 C 11.53125 0.5 8.460938 -0.710938 6.265625 -3.140625 C 4.066406 -5.566406 2.96875 -8.960938 2.96875 -13.328125 C 2.96875 -17.640625 4.03125 -21.09375 6.15625 -23.6875 C 8.28125 -26.289062 11.144531 -27.59375 14.75 -27.59375 C 17.9375 -27.59375 20.445312 -26.476562 22.28125 -24.25 C 24.125 -22.03125 25.046875 -19.007812 25.046875 -15.1875 L 25.046875 -13.203125 L 5.546875 -13.203125 C 5.585938 -9.484375 6.457031 -6.644531 8.15625 -4.6875 C 9.851562 -2.726562 12.289062 -1.75 15.46875 -1.75 C 17.007812 -1.75 18.363281 -1.851562 19.53125 -2.0625 C 20.707031 -2.28125 22.191406 -2.75 23.984375 -3.46875 L 23.984375 -1.21875 C 22.453125 -0.550781 21.039062 -0.0976562 19.75 0.140625 C 18.457031 0.378906 17.03125 0.5 15.46875 0.5 Z M 14.75 -25.40625 C 12.132812 -25.40625 10.035156 -24.546875 8.453125 -22.828125 C 6.878906 -21.109375 5.960938 -18.628906 5.703125 -15.390625 L 22.4375 -15.390625 C 22.4375 -18.523438 21.753906 -20.976562 20.390625 -22.75 C 19.035156 -24.519531 17.15625 -25.40625 14.75 -25.40625 Z M 14.75 -25.40625 "/></g></g><g transform="translate(513.8192, 479.025)"><g><path d="M 15.1875 -27.59375 C 16.332031 -27.59375 17.5625 -27.476562 18.875 -27.25 L 18.40625 -24.875 C 17.269531 -25.15625 16.097656 -25.296875 14.890625 -25.296875 C 12.585938 -25.296875 10.695312 -24.316406 9.21875 -22.359375 C 7.738281 -20.398438 7 -17.925781 7 -14.9375 L 7 0 L 4.53125 0 L 4.53125 -27.0625 L 6.625 -27.0625 L 6.875 -22.1875 L 7.046875 -22.1875 C 8.160156 -24.175781 9.347656 -25.570312 10.609375 -26.375 C 11.867188 -27.1875 13.394531 -27.59375 15.1875 -27.59375 Z M 15.1875 -27.59375 "/></g></g><g transform="translate(533.666368, 479.025)"><g/></g><g transform="translate(546.914414, 479.025)"><g><path d="M 21.171875 0 L 7.59375 -33.625 L 7.390625 -33.625 C 7.523438 -31.5625 7.59375 -29.453125 7.59375 -27.296875 L 7.59375 0 L 5.15625 0 L 5.15625 -36.40625 L 9.09375 -36.40625 L 21.984375 -4.390625 L 22.140625 -4.390625 L 35.03125 -36.40625 L 38.875 -36.40625 L 38.875 0 L 36.3125 0 L 36.3125 -27.59375 C 36.3125 -29.519531 36.410156 -31.507812 36.609375 -33.5625 L 36.40625 -33.5625 L 22.78125 0 Z M 21.171875 0 "/></g></g><g transform="translate(590.916854, 479.025)"><g><path d="M 20.96875 0 L 20.34375 -4.28125 L 20.140625 -4.28125 C 18.785156 -2.539062 17.390625 -1.304688 15.953125 -0.578125 C 14.515625 0.140625 12.816406 0.5 10.859375 0.5 C 8.203125 0.5 6.132812 -0.179688 4.65625 -1.546875 C 3.175781 -2.910156 2.4375 -4.796875 2.4375 -7.203125 C 2.4375 -9.835938 3.535156 -11.882812 5.734375 -13.34375 C 7.941406 -14.8125 11.128906 -15.582031 15.296875 -15.65625 L 20.4375 -15.8125 L 20.4375 -17.609375 C 20.4375 -20.179688 19.914062 -22.125 18.875 -23.4375 C 17.832031 -24.75 16.148438 -25.40625 13.828125 -25.40625 C 11.316406 -25.40625 8.71875 -24.707031 6.03125 -23.3125 L 5.109375 -25.453125 C 8.078125 -26.847656 11.015625 -27.546875 13.921875 -27.546875 C 16.890625 -27.546875 19.109375 -26.769531 20.578125 -25.21875 C 22.046875 -23.675781 22.78125 -21.269531 22.78125 -18 L 22.78125 0 Z M 11 -1.75 C 13.894531 -1.75 16.175781 -2.570312 17.84375 -4.21875 C 19.507812 -5.875 20.34375 -8.171875 20.34375 -11.109375 L 20.34375 -13.765625 L 15.609375 -13.578125 C 11.804688 -13.390625 9.097656 -12.789062 7.484375 -11.78125 C 5.867188 -10.78125 5.0625 -9.21875 5.0625 -7.09375 C 5.0625 -5.40625 5.578125 -4.09375 6.609375 -3.15625 C 7.648438 -2.21875 9.113281 -1.75 11 -1.75 Z M 11 -1.75 "/></g></g><g transform="translate(617.935896, 479.025)"><g><path d="M 23.40625 0 L 23.40625 -17.5625 C 23.40625 -20.28125 22.832031 -22.253906 21.6875 -23.484375 C 20.539062 -24.722656 18.765625 -25.34375 16.359375 -25.34375 C 13.117188 -25.34375 10.75 -24.523438 9.25 -22.890625 C 7.75 -21.253906 7 -18.601562 7 -14.9375 L 7 0 L 4.53125 0 L 4.53125 -27.0625 L 6.625 -27.0625 L 7.09375 -23.359375 L 7.25 -23.359375 C 9.007812 -26.179688 12.140625 -27.59375 16.640625 -27.59375 C 22.773438 -27.59375 25.84375 -24.296875 25.84375 -17.703125 L 25.84375 0 Z M 23.40625 0 "/></g></g><g transform="translate(648.017926, 479.025)"><g><path d="M 23.40625 0 L 23.40625 -17.5625 C 23.40625 -20.28125 22.832031 -22.253906 21.6875 -23.484375 C 20.539062 -24.722656 18.765625 -25.34375 16.359375 -25.34375 C 13.117188 -25.34375 10.75 -24.523438 9.25 -22.890625 C 7.75 -21.253906 7 -18.601562 7 -14.9375 L 7 0 L 4.53125 0 L 4.53125 -27.0625 L 6.625 -27.0625 L 7.09375 -23.359375 L 7.25 -23.359375 C 9.007812 -26.179688 12.140625 -27.59375 16.640625 -27.59375 C 22.773438 -27.59375 25.84375 -24.296875 25.84375 -17.703125 L 25.84375 0 Z M 23.40625 0 "/></g></g><g transform="translate(678.099956, 479.025)"><g><path d="M 15.46875 0.5 C 11.53125 0.5 8.460938 -0.710938 6.265625 -3.140625 C 4.066406 -5.566406 2.96875 -8.960938 2.96875 -13.328125 C 2.96875 -17.640625 4.03125 -21.09375 6.15625 -23.6875 C 8.28125 -26.289062 11.144531 -27.59375 14.75 -27.59375 C 17.9375 -27.59375 20.445312 -26.476562 22.28125 -24.25 C 24.125 -22.03125 25.046875 -19.007812 25.046875 -15.1875 L 25.046875 -13.203125 L 5.546875 -13.203125 C 5.585938 -9.484375 6.457031 -6.644531 8.15625 -4.6875 C 9.851562 -2.726562 12.289062 -1.75 15.46875 -1.75 C 17.007812 -1.75 18.363281 -1.851562 19.53125 -2.0625 C 20.707031 -2.28125 22.191406 -2.75 23.984375 -3.46875 L 23.984375 -1.21875 C 22.453125 -0.550781 21.039062 -0.0976562 19.75 0.140625 C 18.457031 0.378906 17.03125 0.5 15.46875 0.5 Z M 14.75 -25.40625 C 12.132812 -25.40625 10.035156 -24.546875 8.453125 -22.828125 C 6.878906 -21.109375 5.960938 -18.628906 5.703125 -15.390625 L 22.4375 -15.390625 C 22.4375 -18.523438 21.753906 -20.976562 20.390625 -22.75 C 19.035156 -24.519531 17.15625 -25.40625 14.75 -25.40625 Z M 14.75 -25.40625 "/></g></g><g transform="translate(706.090189, 479.025)"><g><path d="M 15.1875 -27.59375 C 16.332031 -27.59375 17.5625 -27.476562 18.875 -27.25 L 18.40625 -24.875 C 17.269531 -25.15625 16.097656 -25.296875 14.890625 -25.296875 C 12.585938 -25.296875 10.695312 -24.316406 9.21875 -22.359375 C 7.738281 -20.398438 7 -17.925781 7 -14.9375 L 7 0 L 4.53125 0 L 4.53125 -27.0625 L 6.625 -27.0625 L 6.875 -22.1875 L 7.046875 -22.1875 C 8.160156 -24.175781 9.347656 -25.570312 10.609375 -26.375 C 11.867188 -27.1875 13.394531 -27.59375 15.1875 -27.59375 Z M 15.1875 -27.59375 "/></g></g></g><path stroke-linecap="butt" transform="matrix(0, 0.75, -0.75, 0, 386.997845, 127.047862)" fill="none" stroke-linejoin="miter" d="M -0.00131588 2.002336 L 118.003897 2.002336 " stroke="#000000" stroke-width="4" stroke-opacity="1" stroke-miterlimit="4"/><path stroke-linecap="round" transform="matrix(0, 0.75, -0.75, 0, 386.997845, 127.047862)" fill="none" stroke-linejoin="round" d="M 110.003897 -3.997665 L 118.003897 2.002336 L 110.003897 8.002336 " stroke="#000000" stroke-width="4" stroke-opacity="1" stroke-miterlimit="4"/><path stroke-linecap="butt" transform="matrix(0, 0.75, -0.75, 0, 386.997845, 318.452174)" fill="none" stroke-linejoin="miter" d="M 0.00126809 2.002336 L 118.006481 2.002336 " stroke="#000000" stroke-width="4" stroke-opacity="1" stroke-miterlimit="4"/><path stroke-linecap="round" transform="matrix(0, 0.75, -0.75, 0, 386.997845, 318.452174)" fill="none" stroke-linejoin="round" d="M 110.006481 -3.997665 L 118.006481 2.002336 L 110.006481 8.002336 " stroke="#000000" stroke-width="4" stroke-opacity="1" stroke-miterlimit="4"/></svg>